<?xml version="1.0" encoding="UTF-8" standalone="no"?>
<!-- Created with Inkscape (http://www.inkscape.org/) -->

<svg
   xmlns:dc="http://purl.org/dc/elements/1.1/"
   xmlns:cc="http://creativecommons.org/ns#"
   xmlns:rdf="http://www.w3.org/1999/02/22-rdf-syntax-ns#"
   xmlns:svg="http://www.w3.org/2000/svg"
   xmlns="http://www.w3.org/2000/svg"
   xmlns:sodipodi="http://sodipodi.sourceforge.net/DTD/sodipodi-0.dtd"
   xmlns:inkscape="http://www.inkscape.org/namespaces/inkscape"
   width="52.657433mm"
   height="57.096649mm"
   viewBox="0 0 52.657433 57.096649"
   version="1.1"
   id="svg8847"
   inkscape:version="0.92.3 (3ce5693, 2018-03-11)"
   sodipodi:docname="github.svg">
  <defs
     id="defs8841" />
  <sodipodi:namedview
     id="base"
     pagecolor="#ffffff"
     bordercolor="#666666"
     borderopacity="1.0"
     inkscape:pageopacity="0.0"
     inkscape:pageshadow="2"
     inkscape:zoom="1.4"
     inkscape:cx="73.754645"
     inkscape:cy="107.73421"
     inkscape:document-units="mm"
     inkscape:current-layer="layer1"
     showgrid="false"
     fit-margin-top="0"
     fit-margin-left="0"
     fit-margin-right="0"
     fit-margin-bottom="0"
     inkscape:window-width="1366"
     inkscape:window-height="658"
     inkscape:window-x="0"
     inkscape:window-y="27"
     inkscape:window-maximized="1" />
  <metadata
     id="metadata8844">
    <rdf:RDF>
      <cc:Work
         rdf:about="">
        <dc:format>image/svg+xml</dc:format>
        <dc:type
           rdf:resource="http://purl.org/dc/dcmitype/StillImage" />
        <dc:title />
      </cc:Work>
    </rdf:RDF>
  </metadata>
  <g
     inkscape:label="Layer 1"
     inkscape:groupmode="layer"
     id="layer1"
     transform="translate(-31.123665,-97.606436)">
    <path
       style="clip-rule:evenodd;fill:#302e31;fill-rule:evenodd;stroke-width:0.02540057;image-rendering:optimizeQuality;shape-rendering:geometricPrecision;text-rendering:geometricPrecision"
       inkscape:connector-curvature="0"
       id="path1515"
       d="m 51.319171,154.08945 c -4.92771,-3.25127 -9.880821,-6.52795 -14.808531,-9.77922 -2.032045,-2.36225 -1.524034,-4.80071 -0.254005,-7.26456 1.447832,-2.18445 1.320829,-4.5213 0.533411,-6.88356 -0.48261,-2.13364 -0.431809,-4.26729 0.203205,-6.37554 1.549435,-4.2927 4.4959,-7.56937 7.62017,-10.69364 2.590858,-2.38765 4.927711,-5.05471 7.747174,-7.18836 0.762017,-0.48261 1.600235,-0.83822 2.463855,-1.04142 6.019934,-0.30481 11.277853,2.59086 16.91678,3.93709 0.812816,0.4318 1.447832,1.06682 1.955842,1.85424 1.346229,2.89566 1.143027,6.22314 2.590859,9.0934 1.092223,2.59086 2.082847,5.20712 2.311452,8.05198 0.152403,2.51466 -0.355608,4.87691 -1.447834,7.13756 -7.924977,16.40877 -11.735062,9.65222 -18.263007,17.24699 -0.787419,0.91442 -5.842132,2.10824 -7.594771,1.90504 z"
       class="fil26" />
    <path
       style="clip-rule:evenodd;fill:#363438;fill-rule:evenodd;stroke-width:0.02540057;image-rendering:optimizeQuality;shape-rendering:geometricPrecision;text-rendering:geometricPrecision"
       inkscape:connector-curvature="0"
       id="path1517"
       d="m 51.319171,154.08945 c 4.064091,-1.19383 9.042602,-1.29543 7.08676,-8.10278 -1.219228,-4.1911 2.743261,-2.71786 4.699103,-3.60688 6.629551,-3.02267 14.122718,-5.46113 13.309899,-15.11334 5.461122,1.01602 3.47988,5.30872 3.759285,8.58539 0.50801,5.63893 -3.657682,8.00118 -7.416967,10.66824 -4.673703,9.52521 -13.030491,8.58539 -21.43808,7.56937 z"
       class="fil28" />
    <path
       style="clip-rule:evenodd;fill:#403f44;fill-rule:evenodd;stroke-width:0.02540057;image-rendering:optimizeQuality;shape-rendering:geometricPrecision;text-rendering:geometricPrecision"
       inkscape:connector-curvature="0"
       id="path1519"
       d="m 72.757251,146.52008 c 0.863619,-3.81009 5.81673,-5.23252 5.588124,-9.67762 1.67644,-5.91833 1.625638,-11.55726 -1.447831,-17.17078 -2.921066,-5.35952 -3.50528,-11.27785 -2.667058,-17.32319 1.397029,-0.86362 2.76866,-0.88902 4.089489,0.1524 4.343498,5.30872 5.435722,11.04925 5.461122,16.94218 v 0.15241 c -0.0254,4.90231 -0.787416,9.88082 -1.092224,14.83393 -0.431808,6.55335 -0.431808,13.10669 -9.906222,12.06527 z"
       class="fil27" />
    <path
       style="clip-rule:evenodd;fill:#363438;fill-rule:evenodd;stroke-width:0.02540057;image-rendering:optimizeQuality;shape-rendering:geometricPrecision;text-rendering:geometricPrecision"
       inkscape:connector-curvature="0"
       id="path1521"
       d="m 38.491885,123.48176 c -0.0254,2.54006 -0.0508,5.05472 -0.0762,7.59477 1.143025,1.95585 -0.457211,3.81009 -0.228606,5.74053 -1.244627,2.33685 -2.006644,4.80071 -1.676437,7.49317 -5.664327,-2.31145 -3.505278,-7.23916 -3.810085,-11.35405 -0.254006,-6.04534 1.930443,-11.48106 4.01329,-16.96758 0.558812,-0.0254 1.117625,-0.0508 1.676437,-0.0508 1.981245,2.48925 1.092225,5.00391 0.0762,7.51857 z"
       class="fil28" />
    <path
       style="clip-rule:evenodd;fill:#5a595d;fill-rule:evenodd;stroke-width:0.02540057;image-rendering:optimizeQuality;shape-rendering:geometricPrecision;text-rendering:geometricPrecision"
       inkscape:connector-curvature="0"
       id="path1523"
       d="m 40.396927,110.37507 c 2.057446,-11.455656 12.344676,-16.357966 20.701462,-9.88082 0.152405,0.43181 0.279408,0.83822 0.431811,1.27003 -5.257918,4.80071 -14.071915,1.62563 -18.542415,8.25518 -0.812818,0.45721 -1.676438,0.55882 -2.590858,0.35561 z"
       class="fil32" />
    <path
       style="clip-rule:evenodd;fill:#5a595d;fill-rule:evenodd;stroke-width:0.02540057;image-rendering:optimizeQuality;shape-rendering:geometricPrecision;text-rendering:geometricPrecision"
       inkscape:connector-curvature="0"
       id="path1525"
       d="m 36.713845,116.014 c 0.711216,6.14693 -1.574836,11.58266 -4.01329,16.96758 -2.590858,-6.57875 -2.463855,-12.52248 4.01329,-16.96758 z"
       class="fil32" />
    <path
       style="clip-rule:evenodd;fill:#363438;fill-rule:evenodd;stroke-width:0.02540057;image-rendering:optimizeQuality;shape-rendering:geometricPrecision;text-rendering:geometricPrecision"
       inkscape:connector-curvature="0"
       id="path1527"
       d="m 40.396927,110.37507 c 0.584213,-0.0762 1.168426,-0.1524 1.77804,-0.2286 0.381008,0 0.736616,0.0254 1.117625,0.0254 1.473233,0.83821 3.886287,1.04142 2.667059,3.78468 -2.489255,3.17507 -4.978511,6.35014 -7.493167,9.52521 -0.0254,-2.51465 -0.0508,-5.02931 -0.0762,-7.51857 0.660415,-1.85424 1.32083,-3.73388 2.006645,-5.58812 z"
       class="fil28" />
    <path
       style="clip-rule:evenodd;fill:#5a595d;fill-rule:evenodd;stroke-width:0.02540057;image-rendering:optimizeQuality;shape-rendering:geometricPrecision;text-rendering:geometricPrecision"
       inkscape:connector-curvature="0"
       id="path1529"
       d="m 78.319975,102.50089 c -1.270029,0.0254 -2.565458,0.0508 -3.835484,0.0508 -4.800709,3.12427 -8.941001,0.91442 -13.055894,-1.57484 0,0 -0.330208,-0.48261 -0.330208,-0.48261 6.17234,-2.997268 11.98907,-2.870265 17.246986,2.00664 z"
       class="fil32" />
    <path
       style="clip-rule:evenodd;fill:#4f4e52;fill-rule:evenodd;stroke-width:0.02540057;image-rendering:optimizeQuality;shape-rendering:geometricPrecision;text-rendering:geometricPrecision"
       inkscape:connector-curvature="0"
       id="path1531"
       d="m 61.428597,100.97686 c 4.521303,-0.91442 8.661596,1.32083 13.055894,1.57484 0.685816,11.50645 11.735062,21.81908 3.860884,34.29076 -0.50801,-3.22587 1.24463,-6.88355 -1.930442,-9.57601 -0.635013,-2.54006 -1.270029,-5.08012 -1.930442,-7.59477 -2.23525,-2.84487 0.45721,-6.68035 -1.905043,-9.52521 v 0 c -6.17234,-2.13365 -11.912867,-6.40095 -19.025027,-3.81009 v 0 c -3.60688,1.72724 -6.883554,4.4197 -11.277852,3.86089 l -0.152404,-0.0762 c 0.965222,-5.89294 5.461123,-6.95976 10.312631,-7.54397 3.022668,-0.38101 6.324743,0.88902 8.966401,-1.62564 z"
       class="fil31" />
    <path
       style="clip-rule:evenodd;fill:#403f44;fill-rule:evenodd;stroke-width:0.02540057;image-rendering:optimizeQuality;shape-rendering:geometricPrecision;text-rendering:geometricPrecision"
       inkscape:connector-curvature="0"
       id="path1533"
       d="m 53.579822,106.36178 c 7.467767,-4.4197 13.513102,-1.62564 19.025026,3.81009 -6.781953,0.93982 -12.395477,-3.98789 -19.025026,-3.81009 z"
       class="fil27" />
    <path
       style="clip-rule:evenodd;fill:#363438;fill-rule:evenodd;stroke-width:0.02540057;image-rendering:optimizeQuality;shape-rendering:geometricPrecision;text-rendering:geometricPrecision"
       inkscape:connector-curvature="0"
       id="path1535"
       d="m 42.301969,110.22267 c 3.251273,-2.79407 6.807353,-4.62291 11.277853,-3.86089 -1.828841,3.25127 -4.368898,5.76593 -7.620171,7.59477 -1.219227,-1.24463 -2.438454,-2.48926 -3.657682,-3.73388 z"
       class="fil28" />
    <path
       style="clip-rule:evenodd;fill:#403f44;fill-rule:evenodd;stroke-width:0.02540057;image-rendering:optimizeQuality;shape-rendering:geometricPrecision;text-rendering:geometricPrecision"
       inkscape:connector-curvature="0"
       id="path1537"
       d="m 72.604848,110.14647 c 3.200472,2.66706 1.447832,6.29934 1.905043,9.52521 -3.149672,-2.66706 -1.422432,-6.29934 -1.905043,-9.52521 z"
       class="fil27" />
    <g
       transform="matrix(0.38658388,0,0,0.40240218,37.525912,106.1397)"
       id="git_1_"
       style="fill:#ffffff;fill-opacity:1">
      <g
         id="g9528"
         style="fill:#ffffff;fill-opacity:1">
        <path
           style="clip-rule:evenodd;fill:#ffffff;fill-opacity:1;fill-rule:evenodd"
           d="m 64.269,61.825 c 3.233,-0.092 5.096,-1.549 7.693,-2.279 2.114,-1.301 5.561,-1.273 7.689,-2.562 2.801,-0.621 4.5,-2.338 6.552,-3.701 1.923,-1.496 3.74,-3.096 5.698,-4.558 1.383,-2.418 3.18,-4.414 3.702,-7.695 v -7.402 c -0.485,-3.312 -1.453,-6.144 -2.278,-9.117 -0.574,-0.373 -0.963,-0.935 -1.14,-1.707 -0.972,-0.734 -1.828,-1.59 -2.562,-2.561 -1.299,-0.51 -2.457,-1.16 -3.137,-2.281 0.644,-0.209 0.113,-1.6 0.286,-2.277 0.644,-0.213 0.112,-1.601 0.284,-2.279 0.817,-0.041 -0.248,-1.955 0.568,-1.996 -0.221,-1.176 0.439,-1.463 0.289,-2.564 0.516,-2.568 2.285,-6.289 0.568,-8.543 -0.367,-0.396 -1.239,-0.283 -1.996,-0.287 -0.336,0.137 -0.645,0.305 -0.854,0.57 -1.163,0.451 -1.744,1.483 -2.848,1.996 -0.751,0.859 -2.013,1.213 -2.564,2.279 -1.953,1.365 -3.371,3.271 -5.413,4.555 -1.308,-0.072 -1.769,0.697 -2.847,0.853 -1.217,0.016 -2.088,0.383 -3.135,0.574 -2.16,0.303 -4.308,0.627 -6.553,0.852 -0.979,0.125 -1.594,-0.113 -2.279,-0.285 -0.896,-0.139 -0.645,0.873 -1.707,0.572 -2.825,-0.371 -6.92,0.234 -10.54,0 C 46.61,11.689 45.312,11.564 44.041,11.41 42.58,10.5 41.275,9.43 40.336,7.988 37.963,7.234 36.299,5.767 33.787,5.142 32.33,4.702 32.236,2.894 30.084,3.148 c -2.42,0.143 -2.675,2.451 -3.416,4.273 0.069,4.389 -0.49,7.834 0,11.965 -0.103,0.943 -0.854,1.232 -1.425,1.711 -0.51,0.535 -0.773,1.315 -1.425,1.707 -0.854,1.236 -1.44,2.74 -2.281,3.986 -0.144,1.756 -0.697,3.102 -0.854,4.84 v 7.125 c 0.57,0.965 0.306,2.109 0.57,3.133 0.03,0.123 0.513,0.695 0.569,0.857 0.152,0.422 0.188,0.854 0.287,1.137 0.279,0.836 0.537,1.375 0.566,1.996 0.016,0.283 0.254,0.182 0.287,0.285 0.539,1.58 0.783,3.195 1.426,4.557 0.254,0.543 0.772,1.119 1.139,1.711 0.479,0.77 0.612,0.992 1.141,1.42 0.094,0.078 -0.082,0.473 0,0.574 0.989,1.207 2.429,1.838 3.133,3.131 2.388,1.123 4.455,2.568 7.975,2.564 0.212,0.641 1.596,0.109 2.281,0.283 0.412,0.441 1.455,0.254 2.275,0.287 1.398,0.408 2.989,0.621 4.846,0.568 -0.651,0.775 -1.262,1.586 -1.995,2.279 -0.538,0.98 -1.78,1.258 -1.997,2.564 -0.9,0.809 -0.505,2.91 -1.424,3.703 -3.181,0.139 -5.987,-0.09 -7.975,-1.141 -2.75,-3.037 -3.968,-7.613 -7.69,-9.686 -2.846,-0.516 -5.751,0.219 -8.831,0.285 -1.202,0.979 -2.783,1.588 -3.987,2.562 -1.45,0.736 -3.122,1.252 -3.136,3.42 2.914,2.176 5.346,-1.805 8.55,-1.994 1.871,-0.068 3.104,0.502 5.126,0.285 1.205,1.547 2.091,3.414 2.85,5.41 0.989,1.195 2.035,2.334 2.85,3.705 0.709,-0.051 0.887,0.439 1.138,0.855 2.018,1.018 4.276,1.797 7.12,1.994 h 4.274 c 1.476,1.629 1.757,4.047 1.422,6.549 -0.058,0.439 -0.413,0.936 -0.567,1.428 -0.287,0.877 -0.408,1.623 -0.572,2.275 -0.253,1.012 -1.193,1.883 -1.14,2.85 -1.831,1.395 -3.321,3.131 -6.553,3.135 -1.957,-0.037 -1.927,-2.059 -4.27,-1.713 -0.254,-1.072 -0.396,-2.258 -1.993,-1.992 -1.222,0.5 -1.366,2.914 -0.857,4.277 0.468,1.43 1.165,2.631 1.71,3.982 2.192,1.795 6.56,1.42 10.54,1.426 0.598,-0.543 1.356,-0.918 2.28,-1.141 2.017,-2.445 3.775,-5.146 5.695,-7.691 0.202,-1.316 0.94,-2.1 1.138,-3.416 0.332,-0.926 1.471,-2.162 2.279,-1.707 0.557,4.191 0.174,9.316 0.285,13.955 -0.629,0.984 -0.88,2.352 -1.424,3.418 -1.592,-0.076 -2.637,0.404 -3.419,1.143 0.28,1.619 1.216,2.582 2.278,3.414 2.973,0.316 4.619,-0.699 6.268,-1.707 0.789,-1.777 1.533,-3.596 1.994,-5.695 0.108,-3.609 -0.061,-7.912 0,-12.248 0.381,-1.619 0.854,-3.139 0.855,-5.131 0.604,-1.391 0.038,-3.947 0.855,-5.125 0.063,1.832 0.455,3.34 0.287,5.41 0.99,6.51 4.521,10.482 6.547,15.953 2.011,1.885 3.97,3.818 7.691,3.986 0.244,-0.424 0.92,-0.414 1.425,-0.568 0.669,-0.945 1.378,-1.852 1.141,-3.701 -0.224,-0.064 -0.332,-0.24 -0.284,-0.574 -0.784,-1.682 -3.238,-1.697 -4.56,-2.846 -0.786,-2.535 -2.345,-4.301 -3.417,-6.555 -0.694,-2.152 -1.249,-4.445 -2.283,-6.264 0.084,-1.506 -0.734,-2.113 -0.566,-3.701 -0.59,-0.074 -0.076,-1.252 -0.57,-1.426 -0.213,-0.975 1.158,-0.363 0.857,-1.424 1.192,1.176 1.647,3.096 2.278,4.838 1.854,2.803 3.562,5.744 6.264,7.693 2.239,2.514 5.177,4.322 9.118,5.129 h 3.701 c 0.046,-0.525 0.967,-0.176 1.139,-0.57 0.191,-0.383 0.613,-0.531 1.141,-0.57 1.033,-1.053 1.723,-2.453 2.562,-3.705 0.578,-1.322 1.092,-4.285 -0.283,-5.125 -3.572,-0.061 -3.897,3.131 -6.838,3.703 C 78.865,84.239 75.35,79.96 73.1,76.068 72.931,75.785 72.989,75.537 72.812,75.214 71.243,72.331 69.354,69.462 68.252,66.382 67.411,65.704 66.9,64.698 66.261,63.822 65.76,63.564 65.376,63.181 65.123,62.683 64.57,62.815 63.669,61.915 64.269,61.825 Z m 16.81,-43.01 c 0.012,0.017 0.259,-0.537 0.284,-0.572 0.016,-0.019 -0.023,-0.283 0,-0.283 1.014,-0.178 0.027,1.265 -0.284,0.855 z m -1.712,7.121 c -0.582,-0.086 -0.559,-0.773 -1.14,-0.855 0.401,-1.5 1.284,-2.516 1.71,-3.986 0.512,-0.039 0.601,0.344 1.142,0.285 0.468,2.556 -1.304,2.87 -1.712,4.556 z m 1.996,2.848 c -0.015,-1.246 0.709,-1.758 1.139,-2.565 0.502,0.26 0.521,0.996 0.854,1.424 0.072,1.021 -0.855,1.045 -0.854,1.998 -0.581,-0.084 -0.559,-0.775 -1.139,-0.857 z m 8.543,11.109 c 0.606,0.09 -0.041,1.242 -0.281,1.424 0.135,0.898 -0.41,1.113 -0.571,1.709 -0.846,0.674 -0.8,2.24 -2.279,2.279 -1.329,-0.021 0.335,-0.652 0.284,-1.141 0.26,-0.504 0.689,-0.832 0.857,-1.422 0.887,-0.728 1.391,-1.833 1.99,-2.849 z m -2.279,-2.566 c -0.012,-0.867 0.605,-1.106 0.857,-1.705 1.381,0.363 -0.206,2.511 -0.857,1.705 z m 0.289,-11.391 c 0.716,1.037 2.074,3.336 0.852,4.555 -1.139,-0.287 -1.141,-1.707 -1.993,-2.277 0.132,-1.008 0.719,-1.559 1.141,-2.278 z m -0.858,13.387 c -0.995,0.996 -1.84,2.145 -2.562,3.42 -0.92,-0.756 0.241,-1.83 0.57,-2.279 0.58,-0.557 0.933,-1.346 1.422,-1.996 0.35,0.124 0.588,0.366 0.57,0.855 z M 86.204,23.94 c -0.005,0.568 -0.776,0.363 -0.569,1.141 -1.079,-0.154 -1.256,-1.213 -1.426,-2.279 1.168,-0.122 1.491,0.599 1.995,1.138 z m -1.138,6.84 c 0.947,0.695 1.962,2.256 0.855,3.416 -0.901,-0.242 -0.812,-1.471 -1.713,-1.711 0.273,-0.58 0.585,-1.131 0.858,-1.705 z m -1.711,6.547 c -1.045,-0.584 -0.016,-1.484 -0.287,-2.844 0.633,0.223 0.715,0.992 1.141,1.422 0.139,0.894 -0.764,0.75 -0.854,1.422 z M 83.926,6.28 C 84.75,7.216 83.375,8.378 83.642,9.7 82.425,9.776 82.402,8.659 81.647,8.272 82.284,7.487 83.435,7.215 83.926,6.28 Z m -4.274,3.133 h 0.855 c 0.014,1.945 2.867,2.043 1.994,3.99 -1.472,-0.525 -2.123,-1.867 -3.135,-2.85 -0.118,-0.597 0.196,-0.754 0.286,-1.14 z m -1.709,3.707 c 0.461,-0.084 0.491,0.266 0.855,0.283 0.093,1.326 1.616,1.229 1.709,2.561 -0.385,0.281 -0.57,0.762 -0.855,1.141 -1.444,-0.168 -1.449,-1.773 -2.564,-2.277 0.113,-0.742 0.851,-0.863 0.855,-1.708 z m 0,15.093 c -0.986,0.199 -1.021,-0.998 -0.568,-1.426 0.576,0.208 1.16,0.86 0.568,1.426 z m -2.56,-15.668 c 0.148,-0.439 0.293,-0.018 0.283,0.285 -0.51,0.083 -0.585,-0.269 -0.283,-0.285 z m 0.283,4.842 c 0.461,-0.078 0.488,0.271 0.854,0.285 0.005,1.23 1.42,1.049 1.424,2.281 -0.891,1.197 -1.438,2.74 -2.277,3.986 -1.278,-0.145 -1.961,-0.887 -2.851,-1.422 1.006,-1.655 1.842,-3.474 2.85,-5.13 z m -1.426,9.686 h -3.704 c 0.008,-0.852 0.743,-0.971 0.857,-1.711 0.729,0.035 0.998,0.527 1.423,0.857 0.727,0.035 1.463,0.055 1.424,0.854 z M 71.963,14.827 c -0.08,-0.463 0.269,-0.49 0.283,-0.858 1.105,-0.246 1.015,0.697 1.711,0.858 -0.414,1.199 -1.48,1.748 -1.711,3.133 -1.096,0.518 -0.854,2.373 -2.278,2.564 -1.119,-0.84 -0.127,-2.201 0.568,-2.851 0.317,-1.108 0.79,-2.059 1.427,-2.846 z m -2.28,-0.573 c -0.811,1.186 -1.58,2.408 -2.278,3.705 -2.19,-0.9 -0.772,-4.644 2.278,-3.705 z m -1.994,8.264 c 0.564,0 0.363,0.773 1.139,0.566 -0.105,1.695 -1.209,2.4 -0.851,4.559 -0.254,-0.221 -0.645,-0.307 -1.143,-0.283 0.609,-1.066 -0.032,-1.619 -0.569,-2.279 0.295,-1.034 0.945,-1.717 1.424,-2.563 z m -1.996,-1.994 c -0.313,1.486 -1.463,2.137 -1.71,3.701 -0.577,-0.271 -1.127,-0.582 -1.708,-0.856 0.523,-1.471 1.608,-2.381 1.994,-3.986 0.836,0.018 1.057,0.649 1.424,1.141 z m -1.136,-5.983 c 0.146,0.145 -0.207,0.361 -0.287,0.285 -0.147,-0.15 0.208,-0.363 0.287,-0.285 z m -4.843,4.557 c 0.61,-0.527 0.753,-1.529 1.423,-1.994 -0.082,-0.461 0.27,-0.488 0.289,-0.857 0.58,0.086 0.555,0.773 1.135,0.857 -0.192,1.039 -1.078,1.391 -1.424,2.279 -0.638,0.596 -0.694,1.773 -1.709,1.996 -0.942,-0.699 -0.065,-1.386 0.286,-2.281 z m 2.277,7.69 c -0.124,0.641 -1.403,0.115 -1.995,0.285 0.104,-0.373 0.503,-0.447 0.57,-0.854 0.879,-0.215 0.547,0.783 1.425,0.569 z M 51.737,14.541 h 7.69 c -0.359,1.916 -1.985,2.572 -2.562,4.274 -0.851,-0.004 -0.967,-0.742 -1.711,-0.856 0.216,-1.213 1.332,-1.518 1.141,-3.133 -1.443,-0.117 -1.668,0.994 -2.564,1.42 -0.713,0.053 -0.89,-0.436 -1.137,-0.854 -0.268,-0.302 -1.051,-0.087 -0.857,-0.851 z m 6.267,12.532 c -0.489,0.654 -2.174,0.103 -3.137,0.287 0.69,-1.217 1.539,-2.262 1.998,-3.703 0.422,0.145 0.719,0.422 1.139,0.568 -0.623,0.682 -0.783,2.195 0,2.848 z m -4.559,-2.848 c -0.834,-0.021 -1.055,-0.652 -1.424,-1.141 0.214,-1.117 1.113,-1.545 1.424,-2.561 0.662,0.19 0.762,0.943 1.422,1.137 -0.443,0.885 -0.843,1.815 -1.422,2.565 z m -1.424,3.135 c -0.772,0.174 -2.26,-0.359 -2.561,0.283 -0.852,-0.592 0.713,-1.158 0.566,-1.994 0.718,0.517 1.952,0.516 1.995,1.711 z m -2.56,-10.256 c 0.911,0.225 1.241,1.031 1.99,1.424 -0.236,1.279 -1.469,1.566 -1.709,2.852 -0.934,-0.113 -1.254,-0.836 -1.993,-1.139 0.145,-1.473 1.495,-1.737 1.712,-3.137 z m -6.84,-2.563 v 0.285 c 2.342,-0.68 3.188,1.133 5.415,0.281 0.049,1 -0.964,0.941 -1.144,1.713 -0.749,0.197 -0.602,1.293 -1.422,1.422 -1.371,-0.432 -2.178,-1.428 -3.135,-2.279 -0.064,-0.537 0.324,-0.625 0.285,-1.137 -0.686,-0.117 -0.619,0.519 -1.425,0.281 -0.291,-0.956 0.888,-0.441 1.426,-0.566 z m 4.845,9.116 c -0.401,1.873 -2.176,2.383 -2.279,4.557 -0.827,-0.219 -1.64,-0.451 -1.997,-1.141 0.439,-1.744 1.738,-2.631 2.281,-4.271 1.103,-0.155 1.173,0.726 1.995,0.855 z m -6.838,-5.129 c 0.149,0.149 -0.208,0.367 -0.288,0.287 -0.143,-0.149 0.208,-0.365 0.288,-0.287 z m 0.568,0.57 c 0.624,0.611 1.585,0.885 1.993,1.709 -0.788,1.775 -2.201,2.924 -2.85,4.842 -1.163,-0.445 -2.141,-1.086 -3.133,-1.709 0.693,-2.252 3.133,-2.758 3.99,-4.842 z M 38.348,30.78 c -0.951,0.186 -1.393,0.885 -2.274,1.139 -1.122,-0.213 -1.55,-1.111 -2.567,-1.428 0.363,-1.631 1.43,-2.557 1.996,-3.986 1.66,0.045 2.117,1.299 3.416,1.709 -0.306,0.738 -0.693,1.398 -0.571,2.566 z m -6.266,-3.992 c -0.527,0.5 -0.861,2.129 -1.709,1.426 0.469,-1.717 1.482,-2.883 2.279,-4.273 0.377,0.101 0.449,0.502 0.854,0.568 -0.196,1.04 -1.078,1.39 -1.424,2.279 z m 2.28,-5.127 c 0.147,0.148 -0.206,0.361 -0.286,0.285 -0.148,-0.145 0.209,-0.364 0.286,-0.285 z m 5.698,-8.258 c -0.769,0.838 -1.58,-0.691 -2.281,-0.857 0.674,-0.747 1.483,0.781 2.281,0.857 z m -2.281,2.56 c -0.843,1.725 -2.403,2.727 -3.136,4.561 -0.579,-0.086 -0.556,-0.773 -1.138,-0.857 0.623,-2.033 1.84,-3.478 2.85,-5.125 0.75,0.195 0.602,1.294 1.424,1.421 z M 31.511,13.12 V 8.842 c 1.351,0.74 2.956,1.223 4.274,1.998 -0.584,0.266 -0.791,0.916 -1.142,1.422 0.156,1.006 -1.009,0.701 -0.853,1.707 -0.926,0.781 -1.48,1.941 -1.992,3.135 -0.659,-0.768 -0.101,-2.748 -0.287,-3.984 z m -0.852,6.546 c 0.149,-0.439 0.296,-0.019 0.284,0.287 -0.51,0.079 -0.583,-0.269 -0.284,-0.287 z m -0.571,1.995 c 1.312,0.514 -0.67,1.246 -0.566,2.279 -0.831,0.406 -0.648,1.826 -1.713,1.996 0.196,-1.99 1.5,-2.871 2.279,-4.275 z m -3.416,14.812 c 0.723,-2.024 1.503,-4 2.275,-5.983 h 0.857 c -0.547,1.666 -1.682,3.846 -0.857,5.983 -0.707,0.721 -1.473,1.375 -1.707,2.566 -0.732,-0.316 -0.562,-1.531 -0.568,-2.566 z m 6.263,-2.277 c -0.787,0.068 -0.648,1.059 -1.137,1.426 -0.117,0.686 0.517,0.617 0.283,1.422 -2.443,2.654 -3.17,9.92 -1.139,13.674 0.344,-0.029 0.175,0.414 0,0 -1.695,-1.438 -2.409,-3.855 -3.135,-6.268 0.422,-2.713 1.751,-4.518 2.279,-7.123 0.66,-0.191 0.764,-0.943 1.423,-1.141 -0.2,-1.055 0.487,-1.221 0.288,-2.277 0.332,-0.172 0.414,-2.006 1.137,-0.855 1.256,-0.04 0.081,0.808 0.001,1.142 z m 14.531,21.65 C 44.592,55.487 41.737,55.116 38.918,54.705 37.856,53.773 36.826,52.809 36.073,51.568 35.629,50.966 35.252,50.3 34.93,49.58 c -0.503,-0.451 -0.375,-1.529 -0.854,-1.998 -0.024,-2.777 0.257,-5.248 0.567,-7.689 0.413,-1.676 1.786,-2.393 2.563,-3.707 1.209,-0.881 2.054,-2.125 3.421,-2.844 0.651,-0.207 1.455,-0.256 1.993,-0.572 0.51,-0.346 1.659,-0.049 1.994,-0.566 6.941,0.385 11.861,-1.242 18.799,-0.855 1.465,0.228 1.871,-0.604 3.135,-0.568 h 6.267 c 0.458,0.076 0.494,-0.273 0.854,-0.289 0.87,-0.207 0.842,0.492 1.714,0.289 0.72,0.033 1.104,0.41 1.137,1.139 0.375,0.289 1.047,0.277 1.424,0.566 0.852,2.57 1.904,4.936 2.564,7.695 v 4.555 c -0.902,3.084 -2.186,5.791 -3.7,8.262 -1.013,0.795 -2.643,0.965 -3.704,1.709 -0.636,0.225 -1.111,0.6 -1.997,0.568 -0.101,0.756 -1.45,0.26 -1.708,0.855 -7.672,0.646 -14.307,-0.196 -21.933,-0.284 z m 23.358,-8.832 c 2.287,0.195 2.596,-1.582 3.416,-2.85 -0.043,-3.562 0.578,-7.795 -2.848,-7.979 h -0.568 c -1.201,1.174 -2.537,2.223 -3.135,3.994 -0.043,1.56 -0.029,3.068 0.287,4.269 1.072,0.734 1.075,2.535 2.848,2.566 z m -29.059,0.852 c 1.245,0.82 2.856,0.992 4.277,0.287 2.066,-2.088 1.109,-7.662 -0.289,-9.686 -4.765,-1.427 -5.788,5.916 -3.988,9.399 z m 16.239,0.287 c 0.048,-0.33 0.449,-0.307 0.855,-0.287 0.572,-0.67 0.752,-1.908 0.287,-2.844 -1.072,-1.024 -3.078,-0.453 -3.139,1.139 0.17,1.164 0.835,1.822 1.997,1.992 z m 1.142,3.135 c -0.941,0.01 -1.422,0.479 -2.566,0.281 -1.864,-0.127 -1.971,-2.016 -3.986,-1.988 -0.16,0.406 -0.445,0.693 -0.857,0.85 0.449,2.971 3.085,3.75 6.267,3.992 0.666,-0.092 1.067,-0.451 1.992,-0.289 1.387,-0.92 4.637,-2.285 2.85,-4.553 -1.977,-0.18 -2.43,1.171 -3.7,1.707 z"
           id="path9526"
           inkscape:connector-curvature="0" />
      </g>
    </g>
    <g
       transform="matrix(0.26458333,0,0,0.26458333,122.83807,230.84894)"
       id="g9531" />
    <g
       transform="matrix(0.26458333,0,0,0.26458333,122.83807,230.84894)"
       id="g9533" />
    <g
       transform="matrix(0.26458333,0,0,0.26458333,122.83807,230.84894)"
       id="g9535" />
    <g
       transform="matrix(0.26458333,0,0,0.26458333,122.83807,230.84894)"
       id="g9537" />
    <g
       transform="matrix(0.26458333,0,0,0.26458333,122.83807,230.84894)"
       id="g9539" />
    <g
       transform="matrix(0.26458333,0,0,0.26458333,122.83807,230.84894)"
       id="g9541" />
    <g
       transform="matrix(0.26458333,0,0,0.26458333,122.83807,230.84894)"
       id="g9543" />
    <g
       transform="matrix(0.26458333,0,0,0.26458333,122.83807,230.84894)"
       id="g9545" />
    <g
       transform="matrix(0.26458333,0,0,0.26458333,122.83807,230.84894)"
       id="g9547" />
    <g
       transform="matrix(0.26458333,0,0,0.26458333,122.83807,230.84894)"
       id="g9549" />
    <g
       transform="matrix(0.26458333,0,0,0.26458333,122.83807,230.84894)"
       id="g9551" />
    <g
       transform="matrix(0.26458333,0,0,0.26458333,122.83807,230.84894)"
       id="g9553" />
    <g
       transform="matrix(0.26458333,0,0,0.26458333,122.83807,230.84894)"
       id="g9555" />
    <g
       transform="matrix(0.26458333,0,0,0.26458333,122.83807,230.84894)"
       id="g9557" />
    <g
       transform="matrix(0.26458333,0,0,0.26458333,122.83807,230.84894)"
       id="g9559" />
  </g>
</svg>
