<?xml version="1.0" encoding="UTF-8" standalone="no"?>
<!-- Generator: Adobe Illustrator 18.1.1, SVG Export Plug-In . SVG Version: 6.00 Build 0)  -->

<svg
   xmlns:dc="http://purl.org/dc/elements/1.1/"
   xmlns:cc="http://creativecommons.org/ns#"
   xmlns:rdf="http://www.w3.org/1999/02/22-rdf-syntax-ns#"
   xmlns:svg="http://www.w3.org/2000/svg"
   xmlns="http://www.w3.org/2000/svg"
   xmlns:sodipodi="http://sodipodi.sourceforge.net/DTD/sodipodi-0.dtd"
   xmlns:inkscape="http://www.inkscape.org/namespaces/inkscape"
   version="1.1"
   id="图层_1"
   x="0px"
   y="0px"
   viewBox="0 911.1 800 83.1"
   enable-background="new 0 911.1 800 83.1"
   xml:space="preserve"
   sodipodi:docname="homeImg3_2.svg"
   inkscape:version="0.92.3 (3ce5693, 2018-03-11)"><metadata
   id="metadata1006"><rdf:RDF><cc:Work
       rdf:about=""><dc:format>image/svg+xml</dc:format><dc:type
         rdf:resource="http://purl.org/dc/dcmitype/StillImage" /></cc:Work></rdf:RDF></metadata><defs
   id="defs1004">
	
	
</defs><sodipodi:namedview
   pagecolor="#ffffff"
   bordercolor="#666666"
   borderopacity="1"
   objecttolerance="10"
   gridtolerance="10"
   guidetolerance="10"
   inkscape:pageopacity="0"
   inkscape:pageshadow="2"
   inkscape:window-width="1366"
   inkscape:window-height="658"
   id="namedview1002"
   showgrid="false"
   inkscape:zoom="1.165"
   inkscape:cx="400"
   inkscape:cy="41.549999"
   inkscape:window-x="0"
   inkscape:window-y="27"
   inkscape:window-maximized="1"
   inkscape:current-layer="图层_1" />
<circle
   style="fill:#4286f4;fill-opacity:1"
   id="circle983"
   r="41.5"
   cy="952.70001"
   cx="41.5" /><path
   style="fill:#ffffff"
   inkscape:connector-curvature="0"
   id="path985"
   d="m 56.058369,963.55837 c 0,-0.9 -0.7,-1.7 -1.7,-1.7 h -22.4 v -28.1 c 0,-0.2 0.2,-0.4 0.4,-0.4 h 2.8 v 22.5 c 0,0.9 0.7,1.7 1.7,1.7 1.1,0 1.7,-0.7 1.7,-1.7 v -22.6 h 13 c 0.2,0 0.4,0.2 0.4,0.4 v 22.2 c 0,0.9 0.7,1.7 1.7,1.7 0.9,0 1.7,-0.7 1.7,-1.7 v -22.2 c 0,-2.2 -1.7,-3.7 -3.7,-3.7 h -18.8 c -2.2,0 -3.7,1.7 -3.7,3.7 v 30 c 0,0.2 0,0.4 0.2,0.7 0,0.2 0.2,0.4 0.4,0.4 l 10.7,10.7 c 0.7,0.7 1.5,1.1 2.6,1.1 0.9,0 1.7,-0.4 2.6,-1.1 l 10.6,-10.6 c 0.2,-0.2 0.2,-0.4 0.4,-0.7 -0.6,-0.2 -0.6,-0.4 -0.6,-0.6 z m -13.4,9.7 c 0,0 -0.2,0 -0.4,0 l -8.3,-8.3 h 17 z" />
<g
   id="g993">
	<circle
   fill="#7ABF43"
   cx="758.5"
   cy="952.7"
   r="41.5"
   id="circle989" />
	<path
   fill="#FFFFFF"
   d="M780.4,953.3l-11.1,11.1c-0.4,0.4-1.1,0.4-1.5,0l-1.5-1.5c-0.4-0.4-0.4-1.1,0-1.5l8.7-8.7l-8.7-8.7   c-0.4-0.4-0.4-1.1,0-1.5l1.5-1.5c0.4-0.4,1.1-0.4,1.5,0l11.1,11.1C780.9,952.2,780.9,952.9,780.4,953.3z M754.3,971.1l-2-0.7   c-0.7-0.2-0.9-0.7-0.9-1.3l8.9-34.6c0.2-0.4,0.7-0.9,1.3-0.7l2.2,0.7c0.7,0.2,0.9,0.7,0.9,1.3l-9.4,34.6   C755.4,970.9,755,971.1,754.3,971.1z M750.9,962.9l-1.5,1.5c-0.4,0.4-1.1,0.4-1.5,0l-11.1-11.1c-0.4-0.4-0.4-1.1,0-1.5l11.1-11.1   c0.4-0.4,1.1-0.4,1.5,0l1.5,1.5c0.4,0.4,0.4,1.1,0,1.5l-8.7,8.7l8.7,8.7C751.3,961.8,751.3,962.4,750.9,962.9z"
   id="path991" />
</g>
<path
   fill="#FFFFFF"
   d="M675.4,954h-8.3v8.3c0,0.7-0.7,1.3-1.3,1.3c-0.7,0-1.3-0.7-1.3-1.3V954h-8.3c-0.7,0-1.3-0.7-1.3-1.3  s0.7-1.3,1.3-1.3h8.3v-8.3c0-0.7,0.7-1.3,1.3-1.3c0.7,0,1.3,0.7,1.3,1.3v8.3h8.3c0.7,0,1.3,0.7,1.3,1.3S676.3,954,675.4,954z"
   id="path995" />
<path
   fill="#FFFFFF"
   d="M144.8,954h-8.3v8.3c0,0.7-0.7,1.3-1.3,1.3c-0.7,0-1.3-0.7-1.3-1.3V954h-8.3c-0.7,0-1.3-0.7-1.3-1.3  s0.7-1.3,1.3-1.3h8.3v-8.3c0-0.7,0.7-1.3,1.3-1.3c0.7,0,1.3,0.7,1.3,1.3v8.3h8c0.7,0,1.3,0.7,1.3,1.3  C146.3,953.3,145.7,954,144.8,954z"
   id="path997" />
<path
   fill="#FFFFFF"
   d="M675.4,954h-8.3v8.3c0,0.7-0.7,1.3-1.3,1.3c-0.7,0-1.3-0.7-1.3-1.3V954h-8.3c-0.7,0-1.3-0.7-1.3-1.3  s0.7-1.3,1.3-1.3h8.3v-8.3c0-0.7,0.7-1.3,1.3-1.3c0.7,0,1.3,0.7,1.3,1.3v8.3h8.3c0.7,0,1.3,0.7,1.3,1.3S676.3,954,675.4,954z"
   id="path999" />
</svg>