<?xml version="1.0" encoding="UTF-8" standalone="no"?>
<!-- Generator: Adobe Illustrator 18.1.1, SVG Export Plug-In . SVG Version: 6.00 Build 0)  -->

<svg
   xmlns:dc="http://purl.org/dc/elements/1.1/"
   xmlns:cc="http://creativecommons.org/ns#"
   xmlns:rdf="http://www.w3.org/1999/02/22-rdf-syntax-ns#"
   xmlns:svg="http://www.w3.org/2000/svg"
   xmlns="http://www.w3.org/2000/svg"
   xmlns:sodipodi="http://sodipodi.sourceforge.net/DTD/sodipodi-0.dtd"
   xmlns:inkscape="http://www.inkscape.org/namespaces/inkscape"
   version="1.1"
   id="图层_1"
   x="0px"
   y="0px"
   viewBox="0 911.1 810 92.1"
   enable-background="new 0 911.1 800 83.1"
   xml:space="preserve"
   sodipodi:docname="homeImg3_2.svg"
   inkscape:version="0.92.3 (3ce5693, 2018-03-11)"
   width="810"
   height="92.099998"><metadata
   id="metadata1006"><rdf:RDF><cc:Work
       rdf:about=""><dc:format>image/svg+xml</dc:format><dc:type
         rdf:resource="http://purl.org/dc/dcmitype/StillImage" /><dc:title></dc:title></cc:Work></rdf:RDF></metadata><defs
   id="defs1004">
	
	

	
	
</defs><sodipodi:namedview
   pagecolor="#ffffff"
   bordercolor="#666666"
   borderopacity="1"
   objecttolerance="10"
   gridtolerance="10"
   guidetolerance="10"
   inkscape:pageopacity="0"
   inkscape:pageshadow="2"
   inkscape:window-width="1366"
   inkscape:window-height="658"
   id="namedview1002"
   showgrid="false"
   inkscape:zoom="1.165"
   inkscape:cx="400"
   inkscape:cy="41.549999"
   inkscape:window-x="0"
   inkscape:window-y="27"
   inkscape:window-maximized="1"
   inkscape:current-layer="图层_1" />




<circle
   style="fill:#4286f4;fill-opacity:1;stroke:#000000;stroke-width:3.77952766;stroke-miterlimit:4;stroke-dasharray:none;stroke-opacity:1"
   id="circle983"
   r="41.5"
   cy="959.12494"
   cx="46.650215" /><path
   style="fill:#000000;stroke:none;stroke-width:1.7007874;stroke-miterlimit:4;stroke-dasharray:none;stroke-opacity:1"
   inkscape:connector-curvature="0"
   id="path985"
   d="m 61.208584,969.98332 c 0,-0.9 -0.7,-1.7 -1.7,-1.7 h -22.4 v -28.1 c 0,-0.2 0.2,-0.4 0.4,-0.4 h 2.8 v 22.5 c 0,0.9 0.7,1.7 1.7,1.7 1.1,0 1.7,-0.7 1.7,-1.7 v -22.6 h 13 c 0.2,0 0.4,0.2 0.4,0.4 v 22.2 c 0,0.9 0.7,1.7 1.7,1.7 0.9,0 1.7,-0.7 1.7,-1.7 v -22.2 c 0,-2.2 -1.7,-3.7 -3.7,-3.7 h -18.8 c -2.2,0 -3.7,1.7 -3.7,3.7 v 30 c 0,0.2 0,0.4 0.2,0.7 0,0.2 0.2,0.4 0.4,0.4 l 10.7,10.7 c 0.7,0.7 1.5,1.1 2.6,1.1 0.9,0 1.7,-0.4 2.6,-1.1 l 10.6,-10.6 c 0.2,-0.2 0.2,-0.4 0.4,-0.7 -0.6,-0.2 -0.6,-0.4 -0.6,-0.6 z m -13.4,9.7 c 0,0 -0.2,0 -0.4,0 l -8.3,-8.3 h 17 z" /><circle
   style="fill:#7abf43;stroke:#000000;stroke-width:3.77952766;stroke-miterlimit:4;stroke-dasharray:none;stroke-opacity:1"
   id="circle989"
   r="41.5"
   cy="959.12494"
   cx="763.65021" /><path
   style="fill:#000000;stroke:none;stroke-width:1.7007874;stroke-miterlimit:4;stroke-dasharray:none;stroke-opacity:1"
   inkscape:connector-curvature="0"
   id="path991"
   d="m 785.55021,959.72492 -11.1,11.1 c -0.4,0.4 -1.1,0.4 -1.5,0 l -1.5,-1.5 c -0.4,-0.4 -0.4,-1.1 0,-1.5 l 8.7,-8.7 -8.7,-8.7 c -0.4,-0.4 -0.4,-1.1 0,-1.5 l 1.5,-1.5 c 0.4,-0.4 1.1,-0.4 1.5,0 l 11.1,11.1 c 0.5,0.1 0.5,0.8 0,1.2 z m -26.1,17.8 -2,-0.7 c -0.7,-0.2 -0.9,-0.7 -0.9,-1.3 l 8.9,-34.6 c 0.2,-0.4 0.7,-0.9 1.3,-0.7 l 2.2,0.7 c 0.7,0.2 0.9,0.7 0.9,1.3 l -9.4,34.6 c 0.1,0.5 -0.3,0.7 -1,0.7 z m -3.4,-8.2 -1.5,1.5 c -0.4,0.4 -1.1,0.4 -1.5,0 l -11.1,-11.1 c -0.4,-0.4 -0.4,-1.1 0,-1.5 l 11.1,-11.1 c 0.4,-0.4 1.1,-0.4 1.5,0 l 1.5,1.5 c 0.4,0.4 0.4,1.1 0,1.5 l -8.7,8.7 8.7,8.7 c 0.4,0.7 0.4,1.3 0,1.8 z" /><path
   d="m 680.55021,960.42492 h -8.3 v 8.3 c 0,0.7 -0.7,1.3 -1.3,1.3 -0.7,0 -1.3,-0.7 -1.3,-1.3 v -8.3 h -8.3 c -0.7,0 -1.3,-0.7 -1.3,-1.3 0,-0.6 0.7,-1.3 1.3,-1.3 h 8.3 v -8.3 c 0,-0.7 0.7,-1.3 1.3,-1.3 0.7,0 1.3,0.7 1.3,1.3 v 8.3 h 8.3 c 0.7,0 1.3,0.7 1.3,1.3 0,0.6 -0.4,1.3 -1.3,1.3 z"
   id="path995"
   style="fill:#000000;stroke:none;stroke-width:1.00157475;stroke-miterlimit:4;stroke-dasharray:none;stroke-opacity:1"
   inkscape:connector-curvature="0" /><path
   d="m 149.95021,960.42492 h -8.3 v 8.3 c 0,0.7 -0.7,1.3 -1.3,1.3 -0.7,0 -1.3,-0.7 -1.3,-1.3 v -8.3 h -8.3 c -0.7,0 -1.3,-0.7 -1.3,-1.3 0,-0.6 0.7,-1.3 1.3,-1.3 h 8.3 v -8.3 c 0,-0.7 0.7,-1.3 1.3,-1.3 0.7,0 1.3,0.7 1.3,1.3 v 8.3 h 8 c 0.7,0 1.3,0.7 1.3,1.3 0.5,0.6 -0.1,1.3 -1,1.3 z"
   id="path997"
   style="fill:#000000;stroke:none;stroke-width:0;stroke-miterlimit:4;stroke-dasharray:none;stroke-opacity:1;fill-opacity:1"
   inkscape:connector-curvature="0" />
</svg>