<?xml version="1.0" encoding="UTF-8" standalone="no"?>
<!-- Created with Inkscape (http://www.inkscape.org/) -->

<svg
   xmlns:dc="http://purl.org/dc/elements/1.1/"
   xmlns:cc="http://creativecommons.org/ns#"
   xmlns:rdf="http://www.w3.org/1999/02/22-rdf-syntax-ns#"
   xmlns:svg="http://www.w3.org/2000/svg"
   xmlns="http://www.w3.org/2000/svg"
   xmlns:sodipodi="http://sodipodi.sourceforge.net/DTD/sodipodi-0.dtd"
   xmlns:inkscape="http://www.inkscape.org/namespaces/inkscape"
   width="45.583202mm"
   height="59.729317mm"
   viewBox="0 0 45.583202 59.729317"
   version="1.1"
   id="svg1724"
   inkscape:version="0.92.3 (3ce5693, 2018-03-11)"
   sodipodi:docname="stackoverflow.svg"
   enable-background="new">
  <defs
     id="defs1718">
    <filter
       inkscape:collect="always"
       style="color-interpolation-filters:sRGB"
       id="filter1116">
      <feBlend
         inkscape:collect="always"
         mode="luminosity"
         in2="BackgroundImage"
         id="feBlend1118" />
    </filter>
  </defs>
  <sodipodi:namedview
     id="base"
     pagecolor="#ffffff"
     bordercolor="#666666"
     borderopacity="1.0"
     inkscape:pageopacity="0.0"
     inkscape:pageshadow="2"
     inkscape:zoom="1"
     inkscape:cx="28.351149"
     inkscape:cy="152.67106"
     inkscape:document-units="mm"
     inkscape:current-layer="layer1"
     showgrid="false"
     fit-margin-top="0"
     fit-margin-left="0"
     fit-margin-right="0"
     fit-margin-bottom="0"
     inkscape:window-width="1366"
     inkscape:window-height="658"
     inkscape:window-x="0"
     inkscape:window-y="27"
     inkscape:window-maximized="1" />
  <metadata
     id="metadata1721">
    <rdf:RDF>
      <cc:Work
         rdf:about="">
        <dc:format>image/svg+xml</dc:format>
        <dc:type
           rdf:resource="http://purl.org/dc/dcmitype/StillImage" />
        <dc:title />
      </cc:Work>
    </rdf:RDF>
  </metadata>
  <g
     inkscape:label="Layer 1"
     inkscape:groupmode="layer"
     id="layer1"
     transform="translate(-79.406855,-49.94505)">
    <path
       style="clip-rule:evenodd;fill:#f8a055;fill-opacity:1;fill-rule:evenodd;stroke-width:0.02540057;image-rendering:optimizeQuality;shape-rendering:geometricPrecision;text-rendering:geometricPrecision"
       inkscape:connector-curvature="0"
       id="path1367"
       d="m 120.78796,73.018254 c 6.57875,10.28723 5.84213,13.817909 -5.13092,25.298966 -3.50528,0.254005 -6.62954,3.75929 -10.46503,1.168427 -1.01602,-5.867533 3.14967,-9.677617 6.45174,-14.859334 -7.92497,-1.75264 -15.824548,-2.590858 -21.057065,-9.017201 -3.022668,-2.413054 -4.749906,-5.003912 -2.946466,-9.245807 1.371631,-3.225872 1.905043,-6.858154 2.590858,-10.363432 l -0.0254,0.0508 c 4.978511,-4.4451 10.109423,-5.486523 15.672153,-0.965221 1.52403,1.244627 3.42907,1.727238 5.41032,2.006644 10.03322,1.371631 11.35405,3.327475 9.34741,13.563904 -0.17781,0.838219 -0.27941,1.600236 0.1524,2.362254 z"
       class="fil0" />
    <path
       style="clip-rule:evenodd;fill:#f8a530;fill-opacity:1;fill-rule:evenodd;stroke-width:0.02540057;image-rendering:optimizeQuality;shape-rendering:geometricPrecision;text-rendering:geometricPrecision"
       inkscape:connector-curvature="0"
       id="path1369"
       d="m 90.231077,56.025273 c 0.0762,3.835486 0.939821,7.848776 -1.320829,11.328654 -2.717861,4.191094 2.69246,4.673705 3.124269,7.366165 2.870265,4.495902 6.070736,8.585392 10.820643,11.379456 3.09887,1.803439 4.80071,4.648303 3.30207,8.50919 -2.79406,2.28605 -5.53732,0.838219 -7.442363,-0.939821 -5.105514,-4.775309 -11.531858,-7.594769 -16.840577,-12.01447 -0.558813,-0.584213 -1.066824,-1.219226 -1.549435,-1.879642 1.143026,-8.813997 6.350143,-15.900756 9.880822,-23.724131 z"
       class="fil1" />
    <path
       style="clip-rule:evenodd;fill:#ff9955;fill-opacity:1;fill-rule:evenodd;stroke-width:0.02540057;filter:url(#filter1116);image-rendering:optimizeQuality;shape-rendering:geometricPrecision;text-rendering:geometricPrecision"
       inkscape:connector-curvature="0"
       id="path1371"
       d="m 120.78796,73.018254 c -1.93044,-1.219227 -0.78742,-2.743261 -0.63502,-4.343497 0.50802,-5.638927 0.40641,-10.922245 -7.95037,-9.245807 -2.05745,0.406409 -4.6737,0.736616 -6.22314,-1.270029 -4.6229,-5.943733 -9.957023,-5.461122 -15.748353,-2.108247 3.200472,-3.378276 20.269653,-7.467767 23.749533,-5.664327 7.97577,4.165693 9.98242,10.769841 6.83275,22.606506 z"
       class="fil1" />
    <path
       style="clip-rule:evenodd;fill:#bcbbcf;fill-opacity:0.94117647;fill-rule:evenodd;stroke-width:0.02540057;image-rendering:optimizeQuality;shape-rendering:geometricPrecision;text-rendering:geometricPrecision"
       inkscape:connector-curvature="0"
       id="path1373"
       d="m 80.350256,79.724005 c 0.533412,0 1.066824,0.0254 1.600236,0.0254 0.939821,1.727239 2.590858,3.022668 3.200471,4.902311 2.184449,6.731148 6.908955,9.906219 13.84331,10.160227 2.260647,0.0762 4.495897,0.457208 6.096137,2.336851 0.1524,0.38101 0.30481,0.762018 0.45721,1.117626 3.35287,2.89566 6.73115,-1.397032 10.08402,0.0254 -4.31809,2.99727 -8.71239,4.90231 -13.7925,1.574835 -1.60024,-1.041424 -3.276676,-0.863619 -4.267299,0.990625 -3.632281,6.90895 -7.924977,2.97186 -10.465034,-0.25401 -4.673704,-5.943732 -9.804619,-12.243072 -6.807352,-20.904665 z"
       class="fil2" />
    <path
       style="clip-rule:evenodd;fill:#f8a055;fill-opacity:1;fill-rule:evenodd;stroke-width:0.02540057;image-rendering:optimizeQuality;shape-rendering:geometricPrecision;text-rendering:geometricPrecision"
       inkscape:connector-curvature="0"
       id="path1375"
       d="m 97.241634,104.99138 c 0.127003,-1.70184 0.812818,-2.87026 2.463855,-2.66706 2.336851,0.27941 3.098871,2.20985 2.971871,4.16569 -0.10161,1.47323 -0.66042,3.70849 -2.819467,3.07347 -1.930444,-0.58421 -2.311452,-2.79406 -2.616259,-4.5467 z"
       class="fil3" />
    <path
       style="clip-rule:evenodd;fill:#f8a055;fill-opacity:1;fill-rule:evenodd;stroke-width:0.02540057;image-rendering:optimizeQuality;shape-rendering:geometricPrecision;text-rendering:geometricPrecision"
       inkscape:connector-curvature="0"
       id="path1377"
       d="m 121.21329,95.14222 c 1.93044,0.431811 2.89566,1.651043 2.87026,3.47988 -0.0254,2.08284 -1.42243,2.79406 -3.30207,2.66706 -1.90505,-0.12701 -3.12427,-1.11763 -2.81947,-3.14967 0.25401,-1.803447 1.39703,-2.870267 3.25128,-2.99727 z"
       class="fil3" />
    <path
       style="clip-rule:evenodd;fill:#bcbbcf;fill-opacity:0.94117647;fill-rule:evenodd;stroke-width:0.02540057;image-rendering:optimizeQuality;shape-rendering:geometricPrecision;text-rendering:geometricPrecision"
       inkscape:connector-curvature="0"
       id="path1379"
       d="m 82.739997,102.06808 c -0.203205,-1.32082 0.533412,-1.72723 1.320829,-1.52403 0.635014,0.1524 1.473233,0.68581 1.676438,1.24462 0.304807,0.83822 -0.355608,1.57484 -1.295429,1.37164 -0.660415,-0.15241 -1.244628,-0.76202 -1.701838,-1.09223 z"
       class="fil2" />
    <path
       style="clip-rule:evenodd;fill:#f8a530;fill-opacity:1;fill-rule:evenodd;stroke-width:0.02540057;image-rendering:optimizeQuality;shape-rendering:geometricPrecision;text-rendering:geometricPrecision"
       inkscape:connector-curvature="0"
       id="path1381"
       d="m 105.52222,94.938946 c 0.33021,-3.429077 -0.83822,-6.654951 -4.01329,-7.594772 -6.553347,-1.955842 -7.874177,-7.264561 -9.474413,-12.649483 5.003913,4.343498 10.515833,7.289964 17.424783,6.781953 2.26065,-0.152405 4.74991,0.0762 5.43573,2.819464 0.60961,2.489255 -1.62564,3.302071 -3.27668,4.241893 -3.81008,2.15905 -3.25127,6.985158 -6.04533,9.753819 l -0.0508,0.0254 c -0.91442,-1.143024 -1.04142,-2.26065 0.0254,-3.378274 z"
       class="fil4" />
    <path
       style="clip-rule:evenodd;fill:#f8c78e;fill-opacity:1;fill-rule:evenodd;stroke-width:0.02540057;image-rendering:optimizeQuality;shape-rendering:geometricPrecision;text-rendering:geometricPrecision"
       inkscape:connector-curvature="0"
       id="path1383"
       d="m 105.52222,94.938946 c 0,1.143024 -0.0254,2.26065 -0.0254,3.378274 -1.57484,-0.558813 -3.09887,-1.422432 -4.69911,-1.600234 -14.88473,-1.879643 -14.88473,-1.828843 -18.872619,-16.942181 7.874176,5.054713 15.722952,10.109427 23.597129,15.164141 z"
       class="fil3" />
    <g
       transform="matrix(0.97193162,0,0,0.9769714,-10.265287,31.928673)"
       id="g3866"
       style="fill:#ffffff;fill-opacity:1;stroke:none">
      <path
         style="fill:#ffffff;fill-opacity:1;stroke:none"
         inkscape:connector-curvature="0"
         id="path3864"
         class=""
         data-original="#000000"
         d="m 122.24916,48.096798 c 0.781,0 1.551,0 2.319,0 0,4.742 0,9.482 0,14.225 -7.536,0 -15.057,0 -22.585,0 0,-4.744 0,-9.479 0,-14.225 0.769,0 1.538,0 2.318,0 0,3.971 0,7.938 0,11.92 5.982,0 11.954,0 17.946,0 0.002,-3.977 0.002,-7.943 0.002,-11.92 z m -6.605,-15.918 c 2.572,3.772 5.138,7.533 7.707,11.3 0.812,-0.555 1.611,-1.1 2.414,-1.647 -2.576,-3.776 -5.14,-7.534 -7.707,-11.299 -0.808,0.55 -1.604,1.093 -2.414,1.646 z m 7.233,11.698 c -3.936,-2.321 -7.854,-4.632 -11.78,-6.948 -0.499,0.845 -0.989,1.675 -1.486,2.517 3.926,2.315 7.847,4.627 11.782,6.948 0.499,-0.847 0.991,-1.679 1.484,-2.517 z m 3.949,-16.196 c -0.965,0.168 -1.91,0.333 -2.879,0.5 0.78,4.499 1.562,8.981 2.34,13.474 0.972,-0.168 1.922,-0.334 2.88,-0.5 -0.781,-4.504 -1.56,-8.987 -2.341,-13.474 z m -5.674,19.539 c -4.41,-1.188 -8.803,-2.367 -13.208,-3.552 -0.254,0.942 -0.505,1.875 -0.76,2.822 4.409,1.186 8.806,2.366 13.209,3.551 0.257,-0.948 0.507,-1.881 0.759,-2.821 z m -1.239,7.565 c -4.558,0 -9.103,0 -13.654,0 0,0.979 0,1.942 0,2.905 4.559,0 9.104,0 13.654,0 0,-0.978 0,-1.943 0,-2.905 z m 0.342,-3.755 c -4.547,-0.418 -9.078,-0.838 -13.619,-1.254 -0.091,0.977 -0.181,1.938 -0.271,2.91 4.547,0.418 9.079,0.836 13.62,1.254 0.091,-0.978 0.179,-1.939 0.27,-2.91 z" />
    </g>
  </g>
</svg>
